<svg width="65" height="65" viewBox="0 0 80 80" fill="none" xmlns="http://www.w3.org/2000/svg">
<g clip-path="url(#clip0_148_6)">
<path d="M66.6674 0H13.3349C5.97744 0.025 0.0274414 5.9775 0.00244141 13.3325V66.665C0.00244141 73.995 6.00494 79.9975 13.3349 79.9975H66.6674C73.9974 79.9975 79.9999 73.995 79.9999 66.665V13.3325C79.9999 6.0025 73.9974 0 66.6674 0ZM59.3749 56.185C58.7099 57.7875 57.6549 59.205 56.3024 60.3C54.8949 61.4325 53.1249 62.37 50.9374 63.035C48.7624 63.7125 46.1724 64.05 43.1649 64.05H21.7324V17.3825H44.4024C48.5949 17.3825 51.9549 18.32 54.4674 20.2475C57.0074 22.175 58.2574 25.065 58.2574 28.945C58.2574 31.3025 57.6849 33.3075 56.5374 34.9725C55.3899 36.6375 53.7374 37.9275 51.6024 38.8275V38.985C54.4549 39.585 56.6549 40.9375 58.0999 43.035C59.5449 45.1325 60.2999 47.7875 60.2999 50.99C60.2999 52.7875 59.9474 54.4925 59.2974 56.08L59.3749 56.17V56.185ZM50.1174 44.6875C48.7624 43.4375 46.8349 42.825 44.3624 42.825H29.9474V57.3825H44.3999C46.8599 57.3825 48.7999 56.745 50.1674 55.455C51.5349 54.165 52.2249 52.33 52.2249 49.985C52.1999 47.68 51.5349 45.8975 50.1674 44.685H50.1024L50.1174 44.6875ZM48.1249 35.2725C49.4399 34.1525 50.0899 32.55 50.0899 30.455C50.0899 28.11 49.5049 26.445 48.3199 25.495C47.1474 24.545 45.4549 24.05 43.2299 24.05H29.8974V36.9275H43.2299C45.1699 36.9275 46.8374 36.355 48.1124 35.275L48.1249 35.2725Z" fill="#00A3FF"/>
</g>
<defs>
<clipPath id="clip0_148_6">
<rect width="80" height="80" fill="white"/>
</clipPath>
</defs>
</svg>
