<svg width="80" height="80" viewBox="0 0 18 18" fill="none" xmlns="http://www.w3.org/2000/svg">
<path d="M8.99994 1.68525C7.21901 1.68521 5.49619 2.31891 4.13976 3.47295C2.78334 4.627 1.88184 6.22606 1.5966 7.984C1.31135 9.74193 1.66097 11.544 2.5829 13.0677C3.50482 14.5915 4.93888 15.7374 6.62844 16.3005C7.00344 16.3665 7.14369 16.1415 7.14369 15.9443C7.14369 15.7665 7.13469 15.1755 7.13469 14.5477C5.24994 14.8942 4.76244 14.088 4.61244 13.6665C4.44605 13.2561 4.18219 12.8923 3.84369 12.6067C3.58119 12.4665 3.20619 12.1192 3.83394 12.1102C4.07385 12.1362 4.30396 12.2196 4.50477 12.3535C4.70557 12.4873 4.87114 12.6676 4.98744 12.879C5.08999 13.0633 5.22789 13.2255 5.39324 13.3563C5.55859 13.4872 5.74814 13.5842 5.95103 13.6416C6.15391 13.6991 6.36615 13.716 6.57557 13.6913C6.78499 13.6666 6.98748 13.6008 7.17144 13.4977C7.20393 13.1163 7.37399 12.7596 7.64994 12.4942C5.98119 12.3067 4.23744 11.6602 4.23744 8.7915C4.22681 8.04598 4.50187 7.32466 5.00619 6.7755C4.77692 6.12766 4.80375 5.41672 5.08119 4.788C5.08119 4.788 5.70894 4.5915 7.14369 5.55675C8.3709 5.21921 9.66648 5.21921 10.8937 5.55675C12.3277 4.58175 12.9562 4.788 12.9562 4.788C13.2337 5.4167 13.2605 6.12767 13.0312 6.7755C13.537 7.32371 13.8123 8.04567 13.7999 8.7915C13.7999 11.6692 12.0464 12.3067 10.3777 12.4942C10.5567 12.6757 10.6945 12.8935 10.7819 13.1329C10.8692 13.3723 10.904 13.6277 10.8839 13.8818C10.8839 14.8853 10.8749 15.6915 10.8749 15.9443C10.8749 16.1415 11.0152 16.3755 11.3902 16.3005C13.0766 15.7327 14.5064 14.584 15.4243 13.0596C16.3422 11.5351 16.6884 9.73403 16.4012 7.97789C16.114 6.22175 15.2121 4.62482 13.8563 3.47218C12.5006 2.31955 10.7794 1.68622 8.99994 1.68525Z" fill="#fff"/>
</svg>
