<svg width="18" height="18" viewBox="0 0 18 18" fill="none" xmlns="http://www.w3.org/2000/svg">
<path d="M15.3524 1.5H2.64742C2.50461 1.49801 2.3628 1.52418 2.2301 1.57701C2.09739 1.62984 1.9764 1.70829 1.87402 1.80788C1.77164 1.90748 1.68988 2.02626 1.63342 2.15746C1.57695 2.28865 1.54688 2.42968 1.54492 2.5725V15.4275C1.54688 15.5703 1.57695 15.7113 1.63342 15.8425C1.68988 15.9737 1.77164 16.0925 1.87402 16.1921C1.9764 16.2917 2.09739 16.3702 2.2301 16.423C2.3628 16.4758 2.50461 16.502 2.64742 16.5H15.3524C15.4952 16.502 15.637 16.4758 15.7697 16.423C15.9024 16.3702 16.0234 16.2917 16.1258 16.1921C16.2282 16.0925 16.31 15.9737 16.3664 15.8425C16.4229 15.7113 16.453 15.5703 16.4549 15.4275V2.5725C16.453 2.42968 16.4229 2.28865 16.3664 2.15746C16.31 2.02626 16.2282 1.90748 16.1258 1.80788C16.0234 1.70829 15.9024 1.62984 15.7697 1.57701C15.637 1.52418 15.4952 1.49801 15.3524 1.5ZM6.06742 14.055H3.81742V7.305H6.06742V14.055ZM4.94242 6.36C4.63212 6.36 4.33452 6.23673 4.11511 6.01731C3.89569 5.7979 3.77242 5.5003 3.77242 5.19C3.77242 4.87969 3.89569 4.5821 4.11511 4.36268C4.33452 4.14327 4.63212 4.02 4.94242 4.02C5.10719 4.00131 5.27405 4.01764 5.43208 4.06791C5.5901 4.11818 5.73573 4.20127 5.85941 4.31172C5.9831 4.42217 6.08207 4.55751 6.14983 4.70886C6.21758 4.86021 6.25261 5.02417 6.25261 5.19C6.25261 5.35583 6.21758 5.51978 6.14983 5.67114C6.08207 5.82249 5.9831 5.95782 5.85941 6.06828C5.73573 6.17873 5.5901 6.26181 5.43208 6.31209C5.27405 6.36236 5.10719 6.37868 4.94242 6.36ZM14.1824 14.055H11.9324V10.4325C11.9324 9.525 11.6099 8.9325 10.7924 8.9325C10.5394 8.93435 10.2931 9.01371 10.0865 9.15988C9.88003 9.30605 9.72329 9.512 9.63742 9.75C9.57873 9.92628 9.5533 10.1119 9.56242 10.2975V14.0475H7.31242V7.2975H9.56242V8.25C9.76682 7.89533 10.0641 7.60314 10.4223 7.4049C10.7804 7.20666 11.1858 7.10989 11.5949 7.125C13.0949 7.125 14.1824 8.0925 14.1824 10.17V14.055Z" fill="#fff"/>
</svg>
