<svg width="80" height="80" viewBox="0 0 80 80" fill="none" xmlns="http://www.w3.org/2000/svg">
<path d="M54.0467 22.54L53.7967 23.8434C53.41 26.3134 53.55 27.02 54.61 27.9367L55.6333 28.7834L54.5733 33.51C53.94 36.33 53.1633 38.6934 52.67 39.47C52.2467 40.14 51.7533 41.1267 51.6467 41.6567C51.47 42.29 50.87 42.9267 49.9533 43.49C49.1433 43.95 47.5533 45.1834 46.4267 46.1734C45.5267 46.9834 44.9067 47.48 44.57 47.6934L43.47 48.5634C43.1167 49.13 42.9167 49.5867 42.84 49.9334C42.7633 50.29 42.8067 50.5267 42.92 50.7C43.03 50.8667 43.22 50.9834 43.48 51.0567C43.7878 51.1288 44.1046 51.1547 44.42 51.1334C45.1336 51.0846 45.8398 50.9595 46.5267 50.76C46.76 50.6967 46.9433 50.6367 47.1033 50.5834C47.35 50.28 47.92 49.7067 48.93 48.71C51.61 46.0667 52.6333 44.62 51.5767 45.01C51.1867 45.15 51.3633 44.7967 52.0333 44.09C53.4467 42.7134 54.2567 40.6334 55.95 34.11C57.29 28.96 57.29 28.8867 58.2767 28.8867C58.74 28.8867 60.05 28.9667 60.05 28.9667V22.54H57.0433H54.0467ZM66.8433 33.09C66.63 33.09 66.2767 33.41 66.0667 33.7634C65.68 34.3967 66.1367 34.7834 71.9567 38.4167C75.4133 40.6067 78.2 42.4734 78.13 42.6167C78.06 42.72 75.2367 44.5567 71.8533 46.6734C65.7133 50.48 65.68 50.5167 66.2433 51.2934C66.95 52.21 66.2433 52.5267 74.2133 47.5534L80 43.85V41.0634L73.5433 37.0767C70.0533 34.89 67.02 33.1267 66.8433 33.09ZM13.2267 33.48C13.05 33.48 10.0167 35.28 6.52667 37.43L0 41.4167V44.2034L6.49 48.26C10.09 50.48 13.1233 52.3167 13.2633 52.3167C13.4033 52.3167 13.6867 51.9967 13.97 51.61C14.3933 50.94 14.0367 50.6567 8.07667 46.8834C2.4 43.32 1.8 42.8267 2.36667 42.44C2.72 42.1934 5.4 40.5334 8.29333 38.7367C14.89 34.68 14.5367 34.96 14.0067 34.1134C13.7967 33.7634 13.44 33.4467 13.23 33.48H13.2267ZM42.1733 33.5567C41.2 33.55 39.1067 35.0334 32.84 40.15C32.57 40.7934 32.5467 41.2367 32.67 41.5234C32.75 41.72 32.8967 41.8567 33.1 41.9567C33.3 42.0567 33.56 42.1167 33.8467 42.14C34.4167 42.19 35.09 42.1 35.6333 41.9934L36 41.91C36.1255 41.7417 36.2903 41.6067 36.48 41.5167C36.8667 41.3034 38.49 39.8234 40.1133 38.2367C42.97 35.3434 43.64 34.0367 42.4767 33.6134C42.3812 33.5754 42.276 33.5562 42.1733 33.5567ZM49.4933 35.5667C48.6367 35.59 47.0933 36.5834 44.45 38.6934C43.1233 39.77 42.2833 40.35 41.8333 40.47L40.0867 41.85C39.43 43.05 39.3333 43.7934 39.5067 44.2034C39.55 44.3045 39.613 44.3961 39.692 44.4727C39.7709 44.5494 39.8643 44.6096 39.9667 44.65C40.2213 44.7506 40.4929 44.8015 40.7667 44.8C41.4209 44.7931 42.0713 44.6978 42.7 44.5167C43.0277 44.4288 43.3513 44.3265 43.67 44.21L43.7667 44.17L43.9433 44.0767C44.2767 43.6467 45.0433 42.8367 46.0033 41.9034C49.0367 38.9767 50.5867 36.8967 50.27 36.12C50.1267 35.7434 49.88 35.5534 49.4933 35.5667ZM41.4133 39.1667C41.1667 39.1934 40.6133 39.62 39.6167 40.4934C38.1767 41.7667 36.6067 42.5 36.0633 42.1734C35.9371 42.2019 35.8104 42.2286 35.6833 42.2534C35.13 42.3634 34.44 42.4534 33.8233 42.4034C33.5328 42.3858 33.248 42.3146 32.9833 42.1934C32.7337 42.0792 32.5345 41.8777 32.4233 41.6267C32.3 41.3267 32.3 40.9534 32.44 40.4767L30.2733 42.2567L25.37 46.3134V52.89L41.4367 40.2334C41.4335 40.0948 41.4515 39.9565 41.49 39.8234C41.6133 39.3767 41.6067 39.15 41.4133 39.17V39.1667ZM48.3267 41.2967C48.0833 41.2967 47.6767 41.64 47.0267 42.33C46.1433 43.2734 44.7533 44.1867 44.0167 44.3734L43.9033 44.4334C43.7824 44.4833 43.6601 44.53 43.5367 44.5734C43.3367 44.64 43.0767 44.72 42.7767 44.8C42.1767 44.9634 41.43 45.1134 40.7633 45.0967C40.449 45.0963 40.1378 45.0352 39.8467 44.9167C39.5723 44.8036 39.3524 44.5885 39.2333 44.3167C39.04 43.8534 39.1167 43.2034 39.54 42.28L25.3667 53.4434V57.46H31.5933L44.8 47.0867C45.1433 46.7067 45.66 46.1867 46.3567 45.5367C48.2233 43.8067 48.6467 43.21 48.6467 42.3267C48.6467 41.64 48.57 41.2934 48.3267 41.2934V41.2967ZM51.47 47.7967L50.34 48.9234C49.7067 49.5234 48.5767 50.2634 47.8033 50.58L47.65 50.6467L47.64 50.6634L47.6067 50.6967C47.5767 50.72 47.5633 50.7234 47.54 50.7334C47.2313 50.8502 46.9177 50.9536 46.6 51.0434C45.8937 51.249 45.1673 51.3775 44.4333 51.4267C44.0863 51.449 43.7379 51.4186 43.4 51.3367C43.1067 51.2721 42.8478 51.1011 42.6733 50.8567C42.5133 50.61 42.4667 50.28 42.5567 49.8734C42.6283 49.5838 42.7346 49.304 42.8733 49.04L32.2167 57.46H46.39L48.0833 55.52C50.41 52.8067 51.47 50.8667 51.47 49.2067V47.7967Z" fill="#00A3FF"/>
</svg>
